<svg width="58" height="60" viewBox="0 0 58 60" fill="none" xmlns="http://www.w3.org/2000/svg">
<path d="M21.7256 54.8917C17.6823 53.7545 14.1264 51.6607 11.0217 48.7365C10.0469 49.0794 9.05415 49.4224 8.04332 49.7473C7.57401 49.8917 7.10469 49.8375 6.61733 49.657C5.7509 49.3321 5.22744 48.7004 4.84838 47.9242C4.32491 46.8953 3.65704 45.9567 3.13357 44.9278C2.66426 43.9711 1.97834 43.1408 1.58123 42.148C1.38267 41.6607 0.859206 41.3357 0.859206 40.722C0.389892 39.9639 0.841155 39.296 1.11191 38.6282C1.18412 38.4477 1.27437 38.213 1.43682 38.1408C2.08664 37.852 2.41155 37.2022 2.95307 36.8051C3.20578 36.6245 3.47653 36.426 3.76534 36.2094C3.35018 34.1336 2.98917 32.0578 2.98917 29.9278C2.98917 27.8159 3.36823 25.7762 3.76534 23.7545C3.06137 23.1047 2.41155 22.4729 1.72563 21.8773C1.02166 21.2635 0.606498 20.5054 0.696751 19.7112C0.750903 19.278 0.877256 18.8087 1.09386 18.4477C1.76173 17.3827 2.37545 16.2635 3.02527 15.1805C3.54874 14.3141 4 13.4116 4.57762 12.5632C4.88448 12.13 5.06498 11.6245 5.37184 11.1733C5.96751 10.3249 7.15884 9.90975 8.13357 10.1986C9 10.4513 9.81227 10.8303 10.6968 10.9928C10.787 11.0108 10.8592 11.1372 10.9495 11.2274C14.0722 8.3213 17.6282 6.24549 21.7076 5.0361C21.87 4.54874 21.9061 4.02527 22.1047 3.51986C22.2491 3.14079 22.213 2.67148 22.2852 2.25632C22.4838 1.17329 23.1516 0.541516 24.1083 0.216606C24.4513 0.108303 24.7942 0 25.2094 0C27.7365 0.0361011 30.2635 0.0361011 32.7906 0C33.5126 0 34.1264 0.288809 34.704 0.613718C35.2274 0.884477 35.5162 1.46209 35.6607 2.00361C35.9134 2.99639 36.0578 4.00722 36.2563 5.05415C40.3177 6.20939 43.8736 8.2852 46.9783 11.2094C47.9531 10.8664 48.9459 10.5235 49.9567 10.1986C50.426 10.0542 50.8953 10.1083 51.3827 10.2888C52.2491 10.6137 52.7726 11.2455 53.1516 12.0217C53.6751 13.0505 54.343 13.9892 54.8664 15.0181C55.3357 15.9747 56.0217 16.8051 56.4188 17.7978C56.6173 18.2852 57.1408 18.6101 57.1408 19.2238C57.6101 19.982 57.1588 20.6498 56.8881 21.3177C56.8159 21.4982 56.7256 21.7329 56.5632 21.8051C55.9134 22.0939 55.5885 22.7437 55.0469 23.1408C54.7942 23.3213 54.5235 23.5199 54.2347 23.7365C54.6498 25.8123 55.0108 27.8881 55.0108 30.018C55.0108 32.13 54.6859 34.1697 54.2347 36.1913C54.9386 36.8412 55.5885 37.4729 56.2744 38.0686C56.9783 38.6823 57.3935 39.4404 57.3033 40.2347C57.2491 40.6679 57.1408 41.1372 56.9061 41.4982C56.2563 42.5451 55.6426 43.6282 55.0108 44.6931C54.2166 46.0108 53.5668 47.4368 52.6462 48.6823C52.4838 49.3682 51.8339 49.4224 51.3646 49.6751C50.8592 49.9458 50.3538 49.8736 49.7942 49.7112C48.9639 49.4765 48.1697 49.0614 47.3033 48.9531C47.213 48.935 47.1408 48.8087 47.0505 48.7184C43.9278 51.6607 40.3899 53.7545 36.2563 54.9278C36.0578 55.9025 35.8773 56.9134 35.6607 57.9061C35.444 58.8809 34.7942 59.4946 33.8736 59.7834C33.5307 59.8917 33.1697 60 32.7726 60C30.2455 59.9639 27.7184 59.9639 25.1913 60C24.4693 60 23.8556 59.7112 23.278 59.3863C22.7545 59.1155 22.4477 58.5379 22.3394 57.9964C22.1408 56.9314 21.9422 55.9386 21.7256 54.8917ZM22.8989 38.9892C23.2599 38.7906 23.6751 38.6643 23.6931 38.231C23.7292 37.5812 23.8195 36.9134 23.6751 36.2996C23.4224 35.2527 22.9711 34.2419 22.7004 33.1949C22.5199 32.5271 22.1227 31.8953 22.1408 31.1733C21.5632 29.7473 21.2022 28.2491 20.7148 26.8051C20.3177 25.6137 20.0289 24.3863 19.5957 23.213C19.361 22.5632 19.3069 21.8412 18.8736 21.2635C18.8375 21.2094 18.8195 21.1733 18.8195 21.1733C18.3321 20.8484 17.8267 20.9567 17.3935 20.9567C17.1408 21.1913 16.9242 21.3899 16.7256 21.5704C16.7076 22.148 16.2924 22.5993 16.3646 23.1588C15.7329 24.5668 15.4621 26.083 14.9386 27.5271C14.6679 28.2671 14.5054 29.0253 14.2888 29.7834C14.0903 30.5415 13.657 31.2274 13.657 32.0397C12.9711 33.574 12.6282 35.2166 12.1227 36.8231C11.9964 37.2202 11.9242 37.5993 12.1769 37.9783C12.2491 38.0866 12.213 38.2491 12.213 38.231C12.5018 38.5379 12.7184 38.7545 12.8989 38.9711C13.2419 38.9711 13.6029 38.9711 13.982 38.9711C14.2347 38.6462 14.4874 38.3394 14.722 38.0325C14.6679 37.0036 14.8845 36.3177 15.3538 35.2166C17.1227 35.2166 18.8917 35.2166 20.6607 35.2166C20.8051 35.7942 20.8773 36.3538 21.0758 36.8773C21.1661 37.0939 21.2563 37.3105 21.2202 37.5271C21.1661 38.1949 21.3827 38.7184 22.1408 38.9711C22.3213 38.9892 22.5921 38.9892 22.8989 38.9892ZM27.1227 38.9892C27.6101 38.9531 28.1697 39.0975 28.5668 38.7004C28.7112 38.5199 28.8375 38.3394 29.0181 38.0866C29.0181 36.2816 29.0181 34.3863 29.0181 32.491C30.3357 32.491 31.6354 32.4368 32.917 32.509C33.6931 32.5451 34.3249 32.3105 34.9386 31.9314C35.2274 31.7509 35.4801 31.4801 35.7329 31.2274C36.4007 30.5776 36.7256 29.7834 36.7437 28.8448C36.7437 27.3646 36.7437 25.9025 36.7437 24.4224C36.7437 24.2058 36.6895 23.9711 36.6354 23.7545C36.4368 22.9783 36.0217 22.4007 35.4621 21.8953C34.8123 21.2996 34.0542 20.9386 33.1516 20.9386C31.13 20.9386 29.1264 20.9386 27.0866 20.9386C26.8881 21.1552 26.6895 21.3718 26.4549 21.5884C26.4549 27.148 26.4549 32.7437 26.4549 38.3574C26.6895 38.556 26.9061 38.7726 27.1227 38.9892ZM40.1191 38.9892C41.3646 38.9892 42.6282 38.9892 43.8736 38.9892C44.0903 38.7726 44.3069 38.556 44.5235 38.3574C44.5235 38.0144 44.5235 37.6895 44.5235 37.3466C44.5235 37.3105 44.5235 37.2924 44.5235 37.2744C44.2527 36.769 43.8375 36.4621 43.296 36.4079C43.296 32.0939 43.296 27.7978 43.296 23.5921C43.6931 23.3935 44.0361 23.213 44.4332 22.9964C44.4874 22.5271 44.5235 22.0397 44.5596 21.6968C44.2708 21.3718 44.0722 21.1372 43.9097 20.9567C42.6101 20.9567 41.3466 20.9567 40.2274 20.9567C39.9206 21.2274 39.704 21.426 39.4332 21.6787C39.4874 22.1119 39.5596 22.5993 39.6137 23.0144C40.0469 23.231 40.3899 23.4116 40.6968 23.574C40.6968 27.87 40.6968 32.1661 40.6968 36.426C40.5162 36.4621 40.3177 36.426 40.2455 36.5162C39.9928 36.769 39.5596 36.8412 39.4693 37.2563C39.4693 37.6173 39.4693 37.9783 39.4693 38.3394C39.6859 38.556 39.9025 38.7726 40.1191 38.9892Z" fill="white"/>
<path d="M19.7039 32.4546C18.6389 32.4907 17.5198 32.5088 16.4006 32.5449C16.3645 32.5449 16.3104 32.6171 16.2021 32.7073C16.2201 31.5882 16.8519 30.6857 16.9241 29.6568C17.4656 28.7543 17.5198 27.6893 17.8808 26.6785C17.9891 26.7868 18.1515 26.8951 18.1515 26.9853C18.1696 27.7615 18.6208 28.4294 18.7652 29.1694C18.8736 29.6749 19.1624 30.1622 19.2346 30.6676C19.3068 31.3175 19.74 31.8048 19.7039 32.4546Z" fill="white"/>
<path d="M34.2349 28.9534C34.1085 29.1519 34.0002 29.3505 33.8558 29.531C33.6031 29.8198 33.2782 29.9823 32.863 29.9642C31.5995 29.9462 30.3359 29.9642 29.0363 29.9642C29.0363 27.8162 29.0363 25.6682 29.0363 23.466C30.354 23.466 31.7078 23.448 33.0435 23.466C33.6753 23.4841 34.2168 24.1339 34.2349 24.8198C34.2349 25.957 34.2349 27.0942 34.2349 28.2314C34.2349 28.4841 34.2349 28.7187 34.2349 28.9534Z" fill="white"/>
</svg>
