<svg width="54" height="60" viewBox="0 0 54 60" fill="none" xmlns="http://www.w3.org/2000/svg">
<path d="M0.511569 0.0105726C0.511569 0.243169 0.500988 0.401758 0.511569 0.560346C0.913666 4.95854 1.31576 9.35673 1.70728 13.7655C2.25752 20.0033 2.79717 26.2411 3.34741 32.4684C3.97172 39.4674 4.60661 46.4559 5.20976 53.4549C5.25208 53.9624 5.43197 54.1844 5.90814 54.3113C12.6803 56.1721 19.4313 58.0434 26.2035 59.8936C26.6585 60.0205 27.2087 60.0416 27.6637 59.9148C34.457 58.054 41.2398 56.1615 48.0331 54.2902C48.5516 54.1421 48.7315 53.9095 48.7738 53.3809C48.9854 50.7378 49.2394 48.0841 49.4722 45.4409C49.8637 41.0639 50.2446 36.6868 50.6362 32.3098C51.0912 27.1715 51.5567 22.0438 52.0117 16.9055C52.3504 13.0783 52.7101 9.26157 53.0487 5.4343C53.2075 3.63696 53.345 1.83963 53.4932 0H0.511569V0.0105726ZM43.2714 15.2774C42.9222 19.1469 42.573 23.0271 42.2239 26.8966C41.8218 31.3477 41.4197 35.7987 41.0176 40.2392C40.9012 41.5185 40.7319 42.7978 40.7001 44.0876C40.679 44.7748 40.3827 44.9546 39.8113 45.1132C35.7268 46.2127 31.6529 47.344 27.5791 48.4647C27.3992 48.5175 27.2299 48.581 27.05 48.6338C26.9865 48.6021 26.923 48.581 26.8489 48.5492C22.4894 47.3651 18.1298 46.1704 13.7702 44.9651C13.5903 44.9123 13.3575 44.6268 13.3364 44.4259C13.0295 41.1273 12.7544 37.8287 12.4581 34.4666H19.1139C19.2303 35.7882 19.3572 37.1309 19.463 38.4842C19.5583 39.7317 19.5477 39.7317 20.7222 40.0489C22.828 40.6092 24.9443 41.159 27.05 41.7088L27.0288 41.6559C29.3356 41.0427 31.6424 40.4401 33.9491 39.7846C34.1608 39.7212 34.4041 39.3828 34.4359 39.1502C34.5734 38.1353 34.6475 37.1097 34.7322 36.0948C34.8697 34.456 35.0073 32.8173 35.1554 31.1045H27.0288L27.05 31.0622C26.9971 31.0622 26.9336 31.0622 26.8807 31.0622H12.1512C11.9502 28.8737 11.7597 26.7063 11.5587 24.4755H26.8913C26.9442 24.4755 27.0077 24.4755 27.0606 24.4755L27.0394 24.4332H35.748C35.949 22.1601 36.1501 19.9399 36.3511 17.6773H27.0288L27.05 17.635C26.9971 17.635 26.9336 17.635 26.8807 17.635C21.664 17.6456 16.4473 17.6456 11.2306 17.6562C11.1566 17.6562 11.0825 17.6245 10.9449 17.5822C10.7545 15.4254 10.5534 13.2686 10.3629 11.0483H26.8807C26.9336 11.0483 26.9971 11.0483 27.05 11.0483L27.0288 11.006H43.6206C43.5042 12.4862 43.3878 13.8818 43.2714 15.2774Z" fill="white"/>
</svg>
