<svg width="41" height="40" viewBox="0 0 41 40" fill="none" xmlns="http://www.w3.org/2000/svg">
<mask id="mask0_161549_289" style="mask-type:alpha" maskUnits="userSpaceOnUse" x="4" y="4" width="33" height="32">
<rect x="4.75" y="4" width="32" height="32" fill="#D9D9D9"/>
</mask>
<g mask="url(#mask0_161549_289)">
<path d="M26.3167 21.3332H11.4167C11.0389 21.3332 10.7222 21.2055 10.4667 20.9499C10.2111 20.6943 10.0833 20.3777 10.0833 19.9999C10.0833 19.6221 10.2111 19.3055 10.4667 19.0499C10.7222 18.7943 11.0389 18.6666 11.4167 18.6666H26.3167L19.7833 12.1332C19.5167 11.8666 19.3889 11.5555 19.4 11.1999C19.4111 10.8443 19.55 10.5332 19.8167 10.2666C20.0833 10.0221 20.3944 9.89435 20.75 9.88324C21.1056 9.87212 21.4167 9.9999 21.6833 10.2666L30.4833 19.0666C30.6167 19.1999 30.7111 19.3443 30.7667 19.4999C30.8222 19.6555 30.85 19.8221 30.85 19.9999C30.85 20.1777 30.8222 20.3443 30.7667 20.4999C30.7111 20.6555 30.6167 20.7999 30.4833 20.9332L21.6833 29.7332C21.4389 29.9777 21.1333 30.0999 20.7667 30.0999C20.4 30.0999 20.0833 29.9777 19.8167 29.7332C19.55 29.4666 19.4167 29.1499 19.4167 28.7832C19.4167 28.4166 19.55 28.0999 19.8167 27.8332L26.3167 21.3332Z" fill="#70E61C"/>
</g>
</svg>
