<svg width="41" height="40" viewBox="0 0 41 40" fill="none" xmlns="http://www.w3.org/2000/svg">
<mask id="mask0_161549_282" style="mask-type:alpha" maskUnits="userSpaceOnUse" x="4" y="4" width="33" height="32">
<rect x="4.75" y="4" width="32" height="32" fill="#D9D9D9"/>
</mask>
<g mask="url(#mask0_161549_282)">
<path d="M15.1833 21.3332L21.7167 27.8666C21.9833 28.1332 22.1111 28.4443 22.1 28.7999C22.0889 29.1555 21.95 29.4666 21.6833 29.7332C21.4167 29.9777 21.1056 30.1055 20.75 30.1166C20.3944 30.1277 20.0833 29.9999 19.8167 29.7332L11.0167 20.9332C10.8833 20.7999 10.7889 20.6555 10.7333 20.4999C10.6778 20.3443 10.65 20.1777 10.65 19.9999C10.65 19.8221 10.6778 19.6555 10.7333 19.4999C10.7889 19.3443 10.8833 19.1999 11.0167 19.0666L19.8167 10.2666C20.0611 10.0221 20.3667 9.8999 20.7333 9.8999C21.1 9.8999 21.4167 10.0221 21.6833 10.2666C21.95 10.5332 22.0833 10.8499 22.0833 11.2166C22.0833 11.5832 21.95 11.8999 21.6833 12.1666L15.1833 18.6666H30.0833C30.4611 18.6666 30.7778 18.7943 31.0333 19.0499C31.2889 19.3055 31.4167 19.6221 31.4167 19.9999C31.4167 20.3777 31.2889 20.6943 31.0333 20.9499C30.7778 21.2055 30.4611 21.3332 30.0833 21.3332H15.1833Z" fill="#70E61C"/>
</g>
</svg>
